<svg version="1.1" xmlns="http://www.w3.org/2000/svg" xmlns:xlink="http://www.w3.org/1999/xlink" width="465.49999" height="35.27832" viewBox="0,0,465.49999,35.27832"><g transform="translate(-5.04691,-319.59877)"><g data-paper-data="{&quot;isPaintingLayer&quot;:true}" fill-rule="nonzero" stroke-linejoin="miter" stroke-miterlimit="10" stroke-dasharray="" stroke-dashoffset="0" style="mix-blend-mode: normal"><path d="M5.29691,352v-22h72.83133v22z" fill="#454545" stroke="#000000" stroke-width="0.5" stroke-linecap="butt"/><path d="M83.73064,352v-22h72.83133v22z" fill="#454545" stroke="#000000" stroke-width="0.5" stroke-linecap="butt"/><path d="M162.16437,352v-22h72.83133v22z" fill="#454545" stroke="#000000" stroke-width="0.5" stroke-linecap="butt"/><path d="M240.59811,352v-22h72.83133v22z" fill="#454545" stroke="#000000" stroke-width="0.5" stroke-linecap="butt"/><path d="M319.03184,352v-22h72.83133v22z" fill="#454545" stroke="#000000" stroke-width="0.5" stroke-linecap="butt"/><path d="M397.46557,351.83333v-22h72.83133v22z" fill="#454545" stroke="#000000" stroke-width="0.5" stroke-linecap="butt"/><path d="M10.12113,342.75l9,-10l4,-0.25l0.25,2.75l-10.25,10.25z" fill="#e48f4d" stroke="#000000" stroke-width="0.5" stroke-linecap="round"/><path d="M13.37113,348.5l-7.25,-6.5l1.25,-1.75l7.75,6.75z" fill="#e48f4d" stroke="#000000" stroke-width="0.5" stroke-linecap="round"/><path d="M10.87113,346.25l-2.5,2.75l-1.5,-1.25l2.75,-3" fill="#e48f4d" stroke="#000000" stroke-width="0.5" stroke-linecap="round"/><path d="M9.12113,348.25l-1.75,-2" fill="none" stroke="#000000" stroke-width="0.5" stroke-linecap="round"/><path d="M9.83402,347l-1.5,-1.375" fill="none" stroke="#000000" stroke-width="0.5" stroke-linecap="round"/><path d="M21.20902,334.5l-8.625,8.125" fill="none" stroke="#000000" stroke-width="0.5" stroke-linecap="round"/><text transform="translate(23.03402,347.525) scale(0.37356,0.5)" font-size="40" xml:space="preserve" fill="#e48f4d" fill-rule="nonzero" stroke="none" stroke-width="1" stroke-linecap="butt" stroke-linejoin="miter" stroke-miterlimit="10" stroke-dasharray="" stroke-dashoffset="0" font-family="Sans Serif" font-weight="normal" text-anchor="start" style="mix-blend-mode: normal"><tspan x="0" dy="0">ATTACK</tspan></text><path d="M90.92659,341.29375c0,1.21503 -0.98498,2.2 -2.2,2.2c-1.21502,0 -2.2,-0.98497 -2.2,-2.2c0,-1.21503 0.98498,-2.2 2.2,-2.2c1.21502,0 2.2,0.98497 2.2,2.2z" fill="#e48f4d" stroke="#000000" stroke-width="0.5" stroke-linecap="butt"/><path d="M89.62659,336.49375c0,0 3.57858,2.36875 3.7,4.7c0.12142,2.33125 -3.2,4.9 -3.2,4.9" fill="none" stroke="#000000" stroke-width="0.5" stroke-linecap="round"/><path d="M90.32659,333.39375c0,0 5.02248,3.70798 5.4,7.2c0.37752,3.49202 -3.8,7.6 -3.8,7.6" fill="none" stroke="#000000" stroke-width="0.5" stroke-linecap="round"/><text transform="translate(96.12659,348.62709) scale(0.81649,0.5)" font-size="40" xml:space="preserve" fill="#e48f4d" fill-rule="nonzero" stroke="none" stroke-width="1" stroke-linecap="butt" stroke-linejoin="miter" stroke-miterlimit="10" stroke-dasharray="" stroke-dashoffset="0" font-family="Sans Serif" font-weight="normal" text-anchor="start" style="mix-blend-mode: normal"><tspan x="0" dy="0">ACT</tspan></text><path d="M169.92659,339.47292l-1.66667,-4.16667h6.5z" fill="#c47b43" stroke="#000000" stroke-width="0.5" stroke-linecap="round"/><path d="M175.25992,343.05625c0,2.7154 -2.16395,4.91667 -4.83333,4.91667c-2.66938,0 -4.83334,-2.20127 -4.83334,-4.91667c0,-2.7154 2.16396,-4.91666 4.83334,-4.91666c2.66938,0 4.83333,2.20126 4.83333,4.91666z" fill="#e48f4d" stroke="#000000" stroke-width="0.5" stroke-linecap="butt"/><path d="M172.59326,342.88959c0,0.9665 -0.82082,1.75 -1.83334,1.75c-1.01252,0 -1.83333,-0.7835 -1.83333,-1.75c0,-0.9665 0.82081,-1.75 1.83333,-1.75c1.01252,0 1.83334,0.7835 1.83334,1.75z" fill="#c47b43" stroke="#000000" stroke-width="0.5" stroke-linecap="butt"/><text transform="translate(176.42659,347.47292) scale(0.61671,0.5)" font-size="40" xml:space="preserve" fill="#e48f4d" fill-rule="nonzero" stroke="none" stroke-width="1" stroke-linecap="butt" stroke-linejoin="miter" stroke-miterlimit="10" stroke-dasharray="" stroke-dashoffset="0" font-family="Sans Serif" font-weight="normal" text-anchor="start" style="mix-blend-mode: normal"><tspan x="0" dy="0">ITEM</tspan></text><path d="M255.42659,336.47292c0.25468,1.89597 0.88104,4.1212 0,6.5c-0.88104,2.3788 -1.78756,1.99526 -3.33334,2.5c-1.54578,0.50474 -3.07843,0.86132 -4.83334,0.16667c-1.75491,-0.69465 -2.57112,-1.64074 -3.16666,-3.33334c-0.59554,-1.6926 -0.63205,-3.54742 0,-5.66666c0.63205,-2.11924 2.00125,-2.14144 2.83333,-3.83333c0.83208,-1.6919 2.16667,-6.33333 2.16667,-6.33333l1.16667,5l1.83333,-6.16667l0.83333,-3.83333c0,0 0.33393,6.3369 1,10.33333c0.66607,3.99643 1.24532,2.7707 1.5,4.66666z" fill="#a9a9a9" stroke="#000000" stroke-width="0.5" stroke-linecap="round"/><path d="M251.59325,336.30625c1.25044,0.69878 1.90352,1.78962 2,3.33333c0.09648,1.54372 -0.68885,1.49154 -1.66667,2c-0.97781,0.50846 -1.53962,0.42523 -2.5,0.16667c-0.96038,-0.25856 -1.59056,-0.47014 -1.83333,-1.33333c-0.24277,-0.86319 -0.75608,-2.86519 0.33333,-4c1.08941,-1.13481 2.41623,-0.86544 3.66667,-0.16667z" fill="#6d6d6d" stroke="#000000" stroke-width="0.5" stroke-linecap="round"/><text transform="translate(255.92659,347.30625) scale(0.43621,0.5)" font-size="40" xml:space="preserve" fill="#b4b4b4" fill-rule="nonzero" stroke="none" stroke-width="1" stroke-linecap="butt" stroke-linejoin="miter" stroke-miterlimit="10" stroke-dasharray="" stroke-dashoffset="0" font-family="Sans Serif" font-weight="normal" text-anchor="start" style="mix-blend-mode: normal"><tspan x="0" dy="0">MAGIC</tspan></text><path d="M333.59322,333.47292v10.5l-6.16667,4.83333l-4,-5v-10.33333l4.5,2.83333z" fill="#a9a9a9" stroke="#000000" stroke-width="0.5" stroke-linecap="round"/><path d="M327.75991,338.30625l4.16667,-2.5v7.66667l-4.5,3.16667l-2.66667,-2.83333v-7.16667z" fill="#6d6d6d" stroke="#000000" stroke-width="0.5" stroke-linecap="round"/><text transform="translate(334.25991,347.30625) scale(0.36483,0.5)" font-size="40" xml:space="preserve" fill="#b4b4b4" fill-rule="nonzero" stroke="none" stroke-width="1" stroke-linecap="butt" stroke-linejoin="miter" stroke-miterlimit="10" stroke-dasharray="" stroke-dashoffset="0" font-family="Sans Serif" font-weight="normal" text-anchor="start" style="mix-blend-mode: normal"><tspan x="0" dy="0">DEFEND</tspan></text><path d="M400.25992,333.30625c0.44514,-0.94964 1.22759,-1.33333 2.33333,-1.33333c1.10574,0 1.34816,0.05807 2.5,1.33333c1.15185,1.27525 1.72827,3.42416 2.16667,3.83333c0.43839,0.40917 -0.55514,0.03014 0.33333,-1.5c0.88847,-1.53015 0.70622,-3.11263 2.66667,-3.66667c1.96044,-0.55404 2.13933,0.69746 3.33333,2c1.194,1.30255 0.01676,2.70541 -2.83333,7.66667c-2.85009,4.96126 -4.5,7.5 -4.5,7.5c0,0 -5.60932,-10.36255 -6.16667,-11.83333c-0.55735,-1.47078 -0.27848,-3.05035 0.16667,-4z" fill="#e48f4d" stroke="#000000" stroke-width="0.5" stroke-linecap="round"/><text transform="translate(415.09325,346.63958) scale(0.45983,0.5)" font-size="40" xml:space="preserve" fill="#e48f4d" fill-rule="nonzero" stroke="none" stroke-width="1" stroke-linecap="butt" stroke-linejoin="miter" stroke-miterlimit="10" stroke-dasharray="" stroke-dashoffset="0" font-family="Sans Serif" font-weight="normal" text-anchor="start" style="mix-blend-mode: normal"><tspan x="0" dy="0">SPARE</tspan></text></g></g></svg>