<svg version="1.1" xmlns="http://www.w3.org/2000/svg" xmlns:xlink="http://www.w3.org/1999/xlink" width="83.47513" height="106.4142" viewBox="0,0,83.47513,106.4142"><g transform="translate(-198.0951,-126.29743)"><g data-paper-data="{&quot;isPaintingLayer&quot;:true}" fill-rule="nonzero" stroke="#000000" stroke-width="3.5" stroke-linejoin="miter" stroke-miterlimit="10" stroke-dasharray="" stroke-dashoffset="0" style="mix-blend-mode: normal"><path d="M214.71694,207.35505c0,0 -11.16129,-14.07229 -13.6125,-24.85761c-2.45121,-10.78532 -1.03608,-16.87311 1.77554,-27.225c2.81163,-10.3519 3.55784,-15.66304 11.24511,-20.71468c7.68727,-5.05164 18.06986,-5.77164 30.18424,-6.51033c12.11439,-0.73868 12.04743,-0.32575 18.34729,3.55109c6.29985,3.87683 10.0959,7.95729 12.42881,15.38805c2.33291,7.43075 4.37814,21.58877 3.55109,35.51087c-0.82706,13.9221 -7.10217,24.26576 -7.10217,24.26576c0,0 7.18993,6.75814 8.28587,13.02065c1.09594,6.26251 -0.55477,7.68913 -4.14294,10.65326c-3.58817,2.96414 -5.75071,1.65438 -9.46957,0.59185c-3.71885,-1.06253 -5.60726,-2.14993 -7.10217,-5.32663c-1.49492,-3.1767 -2.36739,-14.7962 -2.36739,-14.7962c0,0 -2.239,7.87767 -4.73478,12.42881c-2.49578,4.55113 -2.34272,4.92384 -5.32663,5.91848c-2.98392,0.99464 -4.95181,0.23146 -7.10217,-1.77554c-2.15036,-2.00701 -1.04182,-3.90154 -1.77554,-6.51033c-0.73372,-2.60879 -3.55109,-12.42881 -3.55109,-12.42881c0,0 -2.68878,10.16644 -5.91848,15.97989c-3.2297,5.81345 -2.74399,4.66984 -5.91848,5.32663c-3.17449,0.65679 -7.58218,0.7885 -11.24511,-1.77554c-3.66293,-2.56405 -1.08023,-3.66143 -0.59185,-6.51033c0.48838,-2.8489 4.14294,-14.20435 4.14294,-14.20435z" fill="#15bd00" stroke-linecap="round"/><path d="M223.00281,161.78276c0,1.19852 -0.97159,2.17011 -2.17011,2.17011c-1.19852,0 -2.17011,-0.97159 -2.17011,-2.17011c0,-1.19852 0.97159,-2.17011 2.17011,-2.17011c1.19852,0 2.17011,0.97159 2.17011,2.17011z" fill="#000000" stroke-linecap="butt"/><path d="M225.71812,155.21321l-13.12464,-4.02449" fill="none" stroke-linecap="round"/><path d="M245.96382,154.5329l13.01114,-7.43252" fill="none" stroke-linecap="round"/><path d="M250.22782,185.45668c0,0 -4.89017,3.97155 -9.46957,4.73478c-4.5794,0.76323 -9.20757,-0.27701 -11.83696,-1.1837c-2.62939,-0.90668 -5.32663,-4.73478 -5.32663,-4.73478" fill="none" stroke-linecap="round"/><path d="M254.37075,160.00722c0,1.19852 -0.97159,2.17011 -2.17011,2.17011c-1.19852,0 -2.17011,-0.97159 -2.17011,-2.17011c0,-1.19852 0.97159,-2.17011 2.17011,-2.17011c1.19852,0 2.17011,0.97159 2.17011,2.17011z" fill="#000000" stroke-linecap="butt"/></g></g></svg>